<?xml version="1.0" encoding="UTF-8" standalone="no"?>
<svg
   xmlns:dc="http://purl.org/dc/elements/1.1/"
   xmlns:cc="http://creativecommons.org/ns#"
   xmlns:rdf="http://www.w3.org/1999/02/22-rdf-syntax-ns#"
   xmlns:svg="http://www.w3.org/2000/svg"
   xmlns="http://www.w3.org/2000/svg"
   xmlns:sodipodi="http://sodipodi.sourceforge.net/DTD/sodipodi-0.dtd"
   xmlns:inkscape="http://www.inkscape.org/namespaces/inkscape"
   width="512"
   height="512"
   viewBox="0 0 135.46667 135.46667"
   version="1.1"
   id="svg8"
   inkscape:version="1.0.1 (3bc2e813f5, 2020-09-07)"
   sodipodi:docname="favicon.svg">
  <defs
     id="defs2" />
  <sodipodi:namedview
     id="base"
     pagecolor="#1e1e1e"
     bordercolor="#666666"
     borderopacity="1.0"
     inkscape:pageopacity="0"
     inkscape:pageshadow="2"
     inkscape:zoom="0.35000001"
     inkscape:cx="310.62462"
     inkscape:cy="571.18025"
     inkscape:document-units="px"
     inkscape:current-layer="layer1"
     inkscape:document-rotation="0"
     showgrid="false"
     inkscape:window-width="1920"
     inkscape:window-height="1001"
     inkscape:window-x="-9"
     inkscape:window-y="-9"
     inkscape:window-maximized="1"
     units="px"
     inkscape:lockguides="true"
     fit-margin-top="0"
     fit-margin-left="0"
     fit-margin-right="0"
     fit-margin-bottom="0"
     lock-margins="true" />
  <metadata
     id="metadata5">
    <rdf:RDF>
      <cc:Work
         rdf:about="">
        <dc:format>image/svg+xml</dc:format>
        <dc:type
           rdf:resource="http://purl.org/dc/dcmitype/StillImage" />
        <dc:title></dc:title>
      </cc:Work>
    </rdf:RDF>
  </metadata>
  <g
     inkscape:label="Livello 1"
     inkscape:groupmode="layer"
     id="layer1"
     transform="translate(-594.63569,71.667216)">
    <path
       style="fill:#000000;stroke-width:0.226135"
       d="M 655.22785,62.124339 C 639.66426,59.846541 627.31637,51.756162 621.2153,39.839174 c -2.18173,-4.261496 -3.12661,-8.101233 -3.30551,-13.432849 -0.10549,-3.143767 -0.0527,-3.958216 0.40528,-6.244591 0.63451,-3.168182 1.73575,-6.238588 3.25371,-9.071803 1.12953,-2.1081897 3.29895,-5.3350497 4.61393,-6.8628751 l 0.70252,-0.8162265 -0.0704,-10.026428 -0.0704,-10.0264204 -2.12002,-0.487098 c -6.08176,-1.397338 -11.54995,-5.440993 -14.23934,-10.529824 -4.71702,-8.925465 -1.72816,-19.284448 7.11232,-24.650376 3.47897,-2.111641 6.29408,-2.858341 10.73154,-2.846516 3.05341,0.0083 3.22543,0.0371 7.58514,1.278466 0.24579,0.07 0.57016,-0.342392 1.0887,-1.384092 2.76612,-5.556636 8.19989,-10.390187 14.39046,-12.800876 3.11839,-1.214339 6.21271,-1.793607 9.61016,-1.799065 7.59791,-0.01218 14.09,2.586445 19.33324,7.738665 1.99005,1.955507 4.16634,4.909357 5.0607,6.868828 0.55234,1.210182 0.61057,1.262102 1.27887,1.140491 7.62119,-1.386848 14.4945,0.400361 19.18829,4.98937 4.88388,4.774849 6.61085,11.434925 4.53082,17.473192 -1.63702,4.752222 -4.82383,8.18569 -9.72406,10.476702 l -1.97552,0.923632 V -8.4383617 3.3738039 l 1.72887,2.1493832 c 3.20188,3.9806804 5.3249,8.1298469 6.59153,12.8822579 0.73586,2.760941 1.00785,8.425256 0.55538,11.566322 -0.65213,4.527169 -2.89961,10.083128 -5.62262,13.899488 -6.74364,9.451463 -17.69645,15.887405 -30.90976,18.162766 -3.35007,0.576881 -12.0453,0.626868 -15.71143,0.09032 z m 12.84044,-4.931536 c 6.99859,-0.867336 13.12774,-2.96941 18.49978,-6.344728 3.31057,-2.080075 5.14673,-3.560213 7.53957,-6.077683 3.23735,-3.405952 5.31433,-6.681278 6.57382,-10.366624 3.02149,-8.841013 1.7572,-16.835941 -3.91529,-24.759222 -1.95815,-2.735099 -1.87847,-2.6632646 -3.76356,-3.3930469 -7.87108,-3.0471655 -19.08242,-4.7064278 -31.6323,-4.6815287 -8.70311,0.017218 -15.71545,0.8248613 -22.67138,2.6109807 -3.0113,0.7732317 -7.22155,2.1744126 -7.75902,2.5822215 -0.54457,0.413184 -3.42416,4.5614174 -4.28794,6.1770284 -1.25578,2.348837 -2.42979,5.484638 -2.86772,7.65975 -0.53175,2.641118 -0.53803,7.663598 -0.0129,10.248757 1.46713,7.221678 6.2147,13.89594 13.55984,19.062811 4.0228,2.829797 10.68739,5.61001 16.11146,6.721101 4.41489,0.90436 10.09343,1.12186 14.62561,0.560183 z m -8.91516,-11.954535 c -2.8041,-0.681533 -4.96213,-1.80138 -7.00857,-3.636901 -0.99448,-0.891975 -1.85277,-1.841053 -1.90735,-2.109059 -0.1812,-0.889913 0.25332,-1.88702 0.975,-2.237387 1.17418,-0.570027 1.61115,-0.420405 3.20379,1.097026 4.67517,4.454354 11.90869,4.571603 16.46466,0.266861 1.53659,-1.451867 2.08951,-1.704222 3.14807,-1.436841 0.7335,0.185274 1.46162,1.07162 1.46162,1.779207 0,0.576946 -1.36996,2.222022 -2.72173,3.26832 -3.90732,3.024368 -8.95863,4.140616 -13.61549,3.008774 z M 643.8251,28.076041 c -4.11025,-1.26203 -6.23649,-5.137843 -4.87555,-8.887505 0.52295,-1.440893 2.18839,-3.103185 3.8116,-3.804389 1.70216,-0.735322 4.40694,-0.675027 6.17628,0.137659 2.43582,1.118815 3.91438,3.433403 3.91401,6.127123 -2.3e-4,2.511281 -1.78948,5.048272 -4.29104,6.084713 -1.42295,0.589557 -3.45239,0.736304 -4.7353,0.342399 z m 34.39999,0.07593 c -2.10498,-0.495903 -3.90315,-1.908606 -4.8715,-3.827152 -1.42454,-2.822398 -0.57822,-6.188815 2.02349,-8.048896 3.7804,-2.702776 8.93081,-1.572535 11.00939,2.415985 0.84111,1.613985 0.90339,3.976669 0.1463,5.550177 -1.41524,2.941356 -5.0859,4.668898 -8.30768,3.909886 z M 636.16108,-0.45969899 c 3.14468,-0.90898171 8.25888,-1.86354881 13.53977,-2.52717361 3.49015,-0.4385893 4.97878,-0.4995805 12.36965,-0.5068347 9.08281,-0.00893 12.65911,0.2421323 19.02119,1.3352019 3.77077,0.6478463 8.97137,1.85633005 11.07821,2.57427017 l 1.5248,0.51960732 V -3.1764828 -7.2883243 l -1.80877,-0.454783 c -8.06518,-2.0278377 -16.41325,-3.2196877 -24.61062,-3.5136267 -11.80663,-0.423369 -22.38318,0.681703 -33.61994,3.5127005 l -1.80876,0.4557092 v 4.1278571 4.12787393 l 0.87199,-0.34204131 c 0.47958,-0.18813389 2.02871,-0.67640944 3.44248,-1.085063 z M 634.82381,-12.148531 c 2.7537,-0.652182 7.6183,-1.586607 9.68415,-1.860202 l 1.1086,-0.146811 v -6.241115 -6.241115 l 0.57286,-0.537808 c 0.76492,-0.718122 1.97378,-0.721938 2.85661,-0.0091 l 0.65482,0.528779 0.0834,5.950199 0.0834,5.950204 0.85021,-0.124574 c 1.3728,-0.201159 6.74283,-0.563342 8.35251,-0.563342 h 1.48313 v -5.265631 c 0,-6.013302 0.11649,-6.57048 1.46082,-6.986995 0.96661,-0.299503 1.82152,-0.05571 2.36655,0.674833 0.31867,0.427112 0.37363,1.315636 0.37363,6.039298 v 5.538499 l 1.45868,0.0024 c 1.40707,0.0024 5.7537,0.295455 8.28531,0.559029 l 1.22531,0.127565 v -5.838984 -5.838993 l 0.6822,-0.640463 c 0.95696,-0.898407 2.09092,-0.885309 2.91458,0.03362 l 0.6042,0.674134 v 6.09144 6.091427 l 1.92547,0.276576 c 1.67653,0.240824 9.85013,1.911489 11.31937,2.313661 l 0.52512,0.143733 v -6.22354 -6.22354 l 2.27556,-0.700563 c 2.93235,-0.902784 4.91314,-2.015258 6.59848,-3.705967 2.30671,-2.31401 3.49559,-5.229981 3.49559,-8.573668 0,-4.10973 -1.95421,-7.783121 -5.45729,-10.258269 -2.63824,-1.864075 -5.35947,-2.721511 -8.69432,-2.739501 -2.47488,-0.01331 -4.17729,0.274512 -6.62002,1.119335 -0.96272,0.33297 -3.12366,1.011573 -4.80204,1.508025 -1.6784,0.496447 -4.23148,1.446248 -5.67349,2.110658 -1.44204,0.664425 -2.54397,1.084763 -2.44876,0.934094 0.44805,-0.708917 3.69079,-4.151936 4.83535,-5.133987 1.19052,-1.021527 3.14458,-2.357054 3.70547,-2.532576 0.36741,-0.114967 -1.23486,-3.163119 -2.46115,-4.682135 -1.25039,-1.548843 -3.8162,-3.877798 -5.39732,-4.899067 -1.50913,-0.97479 -5.06919,-2.522942 -6.89596,-2.998842 -2.36887,-0.61713 -8.18689,-0.568409 -10.39953,0.0871 -3.87575,1.148199 -7.77311,3.356826 -10.09028,5.718121 -3.16586,3.226193 -4.67233,6.172618 -5.98179,11.699462 l -0.14205,0.599573 -1.45503,-1.015095 c -3.53269,-2.464568 -8.28687,-3.708573 -12.06811,-3.157788 -5.44211,0.792709 -10.15868,4.434206 -12.03759,9.293804 -2.05849,5.32406 -0.44688,11.546319 4.01788,15.512657 3.25858,2.89479 6.71359,4.272217 11.39773,4.543965 l 2.33389,0.13541 0.0629,4.765599 c 0.0347,2.621083 0.11404,4.765601 0.17655,4.765601 0.0625,0 1.34702,-0.292112 2.85446,-0.64913 z M 608.93286,48.9714 c -2.59247,-0.232735 -4.26832,-1.359461 -5.37273,-3.612235 -0.51039,-1.041109 -0.54287,-1.40771 -0.65377,-7.379511 -0.11033,-5.940848 -0.14335,-6.317714 -0.60492,-6.901904 -0.98514,-1.246833 -2.76454,-2.038361 -4.58799,-2.040912 l -0.87521,-8.13e-4 v -2.927528 -2.927536 l 1.4225,-0.121081 c 2.02999,-0.172817 3.46395,-0.913529 4.1205,-2.128439 0.50372,-0.932111 0.52517,-1.199712 0.52642,-6.567312 0.002,-6.0390048 0.10349,-6.7505633 1.2015,-8.3753259 1.05363,-1.5590683 2.52299,-2.3372709 4.89692,-2.5935011 2.33945,-0.2525124 4.63,-0.2769905 4.65231,-0.049707 0.009,0.090382 0.0351,1.3228807 0.0585,2.7388746 l 0.0422,2.5745464 -1.89399,-2.43e-5 c -1.56272,-1.59e-5 -2.00154,0.079431 -2.50892,0.4541013 l -0.61503,0.4541164 v 5.3062126 c 0,4.053228 -0.0845,5.614587 -0.35777,6.612117 -0.3908,1.426552 -1.69748,3.400014 -2.7221,4.111208 l -0.64977,0.451 1.06685,0.959683 c 0.62127,0.558866 1.37577,1.571827 1.80648,2.425347 l 0.73962,1.465663 0.0662,5.587259 c 0.0667,5.623146 0.20094,6.605362 0.94699,6.928543 0.21289,0.09222 1.22727,0.222552 2.25418,0.289635 l 1.86711,0.121943 0.0655,2.543214 0.0656,2.543212 -1.23241,0.138968 c -0.67783,0.07643 -1.38995,0.126019 -1.58251,0.110216 -0.19254,-0.01584 -1.15649,-0.101136 -2.1421,-0.189619 z m 102.96617,-2.490237 v -2.765302 h 1.84127 c 1.46423,0 1.95407,-0.08568 2.39224,-0.418401 0.5497,-0.417425 0.55124,-0.432554 0.66765,-6.51847 0.13368,-6.987268 0.16714,-7.119257 2.38133,-9.393685 l 1.16456,-1.196244 -1.0622,-1.109135 c -0.58422,-0.610014 -1.35579,-1.670371 -1.71459,-2.356339 l -0.65239,-1.247206 -0.11671,-5.838789 c -0.14172,-7.0913221 0.003,-6.7599272 -2.95352,-6.7599272 h -1.94764 V 6.1218402 3.3660153 l 3.0924,0.071717 c 2.74413,0.063675 3.21999,0.1329404 4.22527,0.6149551 1.30386,0.6252019 2.12009,1.452954 2.81333,2.8529715 0.45159,0.9120608 0.49287,1.4295885 0.55038,6.9019131 0.0341,3.25375 0.11292,6.130162 0.17497,6.392029 0.15697,0.662504 1.19413,1.769591 2.06621,2.205535 0.40188,0.200906 1.41336,0.473867 2.24774,0.606588 l 1.51702,0.241312 0.0652,2.891273 0.0652,2.891281 h -0.93157 c -2.09989,0 -4.69447,1.501138 -5.02486,2.907201 -0.0632,0.268932 -0.14405,3.200436 -0.17969,6.514447 -0.06,5.574557 -0.10121,6.09926 -0.55172,7.011465 -0.72415,1.466256 -1.59657,2.317714 -3.06672,2.992978 -1.17107,0.537905 -1.63697,0.615173 -4.19029,0.694973 l -2.87271,0.08978 z"
       id="path872" />
    <path
       style="fill:#ffffff;stroke-width:0.646101"
       d="m 632.2467,-16.495693 v -4.561486 l -3.16741,-0.428445 c -6.80595,-0.920595 -11.52334,-3.856651 -13.90188,-8.652349 -6.34681,-12.796644 7.59273,-24.933503 20.67557,-18.001792 2.65352,1.405925 3.83827,1.75776 4.02698,1.19592 0.14705,-0.437817 0.61841,-1.922883 1.04745,-3.300137 1.11526,-3.579931 4.97045,-8.692145 7.95154,-10.544226 4.34422,-2.698951 7.26792,-3.54132 12.2894,-3.540801 3.83944,4.39e-4 5.52213,0.34261 8.75402,1.780305 4.01376,1.78551 8.06435,5.34317 9.92082,8.713536 0.9607,1.74409 0.92923,1.840801 -0.93586,2.875112 -1.83922,1.019985 -6.65107,6.012172 -6.65107,6.900347 0,0.231624 0.82519,0.02241 1.83376,-0.464853 4.90068,-2.367744 13.77519,-4.780381 17.58389,-4.780381 8.06624,0 13.9437,5.211449 13.909,12.33287 -0.0281,5.773012 -3.49677,10.054299 -9.82105,12.121989 l -2.16718,0.708554 v 6.265965 c 0,5.098189 -0.17307,6.203612 -0.92874,5.931381 -0.51082,-0.184022 -3.51153,-0.816136 -6.66826,-1.404688 l -5.73951,-1.070111 v -6.097902 c 0,-4.800092 -0.22478,-6.273051 -1.05614,-6.920798 -0.76513,-0.596159 -1.36226,-0.642095 -2.16719,-0.166724 -0.88878,0.524895 -1.14937,1.875439 -1.30264,6.751457 -0.16327,5.194404 -0.34383,6.04046 -1.22148,5.724285 -0.56644,-0.204067 -2.95581,-0.371028 -5.30972,-0.371028 h -4.27982 v -5.966861 c 0,-4.946724 -0.18651,-6.034062 -1.09087,-6.359869 -2.45245,-0.883512 -3.23443,0.608654 -3.43455,6.553653 l -0.19105,5.675767 -4.95629,0.205155 -4.95631,0.205172 -0.18726,-5.880794 c -0.19618,-6.160597 -0.95297,-7.651587 -3.43074,-6.758953 -0.91224,0.328633 -1.09088,1.4487 -1.09088,6.839178 v 6.44619 l -6.66827,1.303423 -6.66826,1.303413 z"
       id="path874" />
    <path
       style="fill:#ffffff;stroke-width:0.646101"
       d="m 689.59373,-0.46381079 c -13.44665,-4.09061211 -39.31955,-4.26197411 -53.01266,-0.35110469 -1.83377,0.52373382 -3.55918,0.9553067 -3.83425,0.95903455 -0.27507,0.003277 -0.50012,-1.63892717 -0.50012,-3.65032757 v -3.6571064 l 6.50157,-1.3473109 c 16.5555,-3.4307732 30.45767,-3.4360752 48.01144,-0.018274 l 6.83497,1.3307752 v 3.9875525 c 0,2.1931481 -0.0749,3.95941055 -0.16671,3.92503211 -0.0917,-0.0343538 -1.8171,-0.56457637 -3.83424,-1.17821476 z"
       id="path876" />
    <path
       style="fill:#ffffff;stroke-width:0.646101"
       d="m 652.5849,56.111127 c -10.01819,-2.262529 -20.36634,-9.220735 -24.98582,-16.800715 -5.61381,-9.211538 -5.03235,-20.482766 1.52502,-29.5621954 1.85137,-2.5634128 2.69169,-3.1169845 6.58095,-4.3353272 14.20914,-4.45109842 37.88749,-4.55271342 52.88844,-0.2269779 5.72635,1.6512702 7.11297,2.8109541 10.05781,8.4117115 3.81517,7.256072 4.16608,14.53526 1.06633,22.12027 -6.20073,15.173029 -28.16574,24.676762 -47.13273,20.393234 z m 15.09796,-10.987069 c 3.56542,-1.002866 8.03691,-4.679237 7.77639,-6.393604 -0.31984,-2.104787 -2.88967,-2.032167 -5.54512,0.156685 -4.18704,3.451328 -9.59886,3.359955 -14.63229,-0.247044 -1.7416,-1.248059 -3.42745,-1.997504 -4.01619,-1.785413 -1.62118,0.584044 -1.18456,3.271366 0.81913,5.041485 4.07134,3.596749 9.95668,4.814669 15.59808,3.227891 z m -17.6766,-17.911585 c 5.20546,-3.958573 3.07987,-11.672547 -3.42279,-12.42157 -7.22234,-0.831917 -11.09781,7.224788 -5.68066,11.809476 2.4335,2.059542 6.81286,2.354009 9.10345,0.612094 z m 34.17493,0.08862 c 5.7378,-3.773 2.74076,-12.751657 -4.25644,-12.751657 -3.85416,0 -7.66849,3.425247 -7.66849,6.886256 0,1.837576 1.71368,4.748608 3.47869,5.909215 1.93767,1.274145 6.47776,1.250594 8.44624,-0.04378 z"
       id="path878" />
  </g>
</svg>
